<svg xmlns="http://www.w3.org/2000/svg" version="1.1" xmlns:xlink="http://www.w3.org/1999/xlink" width="487.32" height="512.39"><svg id="SvgjsSvg1003" xmlns="http://www.w3.org/2000/svg" xmlns:xlink="http://www.w3.org/1999/xlink" viewBox="0 0 487.32 512.39"><defs><style>.cls-1{fill:none;}.cls-2{fill:#ede7dc;}.cls-3{fill:#38bdf8;fill-rule:evenodd;}.cls-4{clip-path:url(#clippath);}</style><clipPath id="SvgjsClipPath1002"><rect class="cls-1" x="55.78" y="143.47" width="375.76" height="225.46"></rect></clipPath></defs><path class="cls-2" d="M243.66,0l.14.34c24.01,59.38,95.8,82.71,150.14,48.78l.31-.2-.91,3.66c-15.05,60.43,28.09,119.81,90.21,124.17l3.77.26-3.47,2.91c-47.4,39.79-47.4,112.73,0,152.52l3.47,2.91-3.77.26c-62.12,4.36-105.26,63.74-90.21,124.17l.91,3.66-.31-.2c-54.33-33.93-126.12-10.6-150.14,48.78l-.14.34-.14-.34c-24.01-59.38-95.8-82.71-150.14-48.78l-.31.2.91-3.66c15.05-60.43-28.09-119.81-90.21-124.17l-3.77-.26,3.47-2.91c47.4-39.79,47.4-112.73,0-152.52l-3.47-2.91,3.77-.26c62.12-4.36,105.26-63.74,90.21-124.17l-.91-3.66.31.2C147.71,83.05,219.51,59.73,243.52.34l.14-.34Z"></path><g class="cls-4"><path class="cls-3" d="M243.66,143.47c-50.1,0-81.42,25.05-93.94,75.15,18.79-25.05,40.71-34.45,65.76-28.18,14.29,3.57,24.51,13.95,35.82,25.42,18.42,18.7,39.74,40.34,86.31,40.34,50.1,0,81.42-25.05,93.94-75.15-18.79,25.05-40.71,34.45-65.76,28.18-14.29-3.57-24.51-13.95-35.82-25.42-18.42-18.7-39.74-40.34-86.31-40.34ZM149.72,256.2c-50.1,0-81.42,25.05-93.94,75.15,18.79-25.05,40.71-34.45,65.76-28.18,14.29,3.58,24.51,13.95,35.82,25.42,18.42,18.7,39.74,40.34,86.31,40.34,50.1,0,81.42-25.05,93.94-75.15-18.79,25.05-40.71,34.45-65.76,28.18-14.29-3.57-24.51-13.95-35.82-25.42-18.42-18.7-39.74-40.34-86.31-40.34Z"></path></g></svg><style>@media (prefers-color-scheme: light) { :root { filter: none; } }
@media (prefers-color-scheme: dark) { :root { filter: none; } }
</style></svg>